<svg xmlns="http://www.w3.org/2000/svg" width="24" height="24" fill="none"><g fill="#343A3F" clip-path="url(#a)"><path d="M.703 10.194H0v6.17a5.408 5.408 0 0 1 2.531.811v-6.981H.703ZM19.562 2.547H4.438A4.443 4.443 0 0 0 0 6.985v1.803H9.152V7.483h5.696v1.305H24V6.985a4.443 4.443 0 0 0-4.438-4.438ZM14.848 10.194v.78c0 .255-.035.502-.098.737h5.313v-1.517h-5.215ZM23.297 10.194h-1.828v6.981A5.407 5.407 0 0 1 24 16.363v-6.17h-.703ZM13.87 13.118a2.835 2.835 0 0 1-3.74 0H3.937v5.318a5.417 5.417 0 0 1 1.153 3.017h13.82a5.416 5.416 0 0 1 1.152-3.017v-5.318H13.87ZM20.32 21.453H24v-3.679a4.044 4.044 0 0 0-3.68 3.68ZM0 17.774v3.68h3.68A4.044 4.044 0 0 0 0 17.773ZM9.152 10.973v-.78H3.938v1.518H9.25a2.842 2.842 0 0 1-.098-.738ZM10.559 8.89v2.083c0 .795.646 1.442 1.44 1.442.796 0 1.442-.647 1.442-1.442V8.89H10.56Z"/></g><defs><clipPath id="a"><path fill="#fff" d="M0 0h24v24H0z"/></clipPath></defs></svg>