<svg xmlns="http://www.w3.org/2000/svg" width="24" height="24" fill="none"><g clip-path="url(#a)"><path fill="#4888FF" fill-opacity=".5" fill-rule="evenodd" d="M14.829.005h-.001L.925 2.324a.414.414 0 0 0-.346.408v18.538c0 .202.147.375.346.408l13.904 2.317a.408.408 0 0 0 .126.002l8.11-1.159a.414.414 0 0 0 .356-.41V1.572a.414.414 0 0 0-.356-.41L14.955.005a.417.417 0 0 0-.127.001Zm.481 17.974v5.13l1.49-.213v-6.241l-1.49 1.324ZM1.407 15.964l13.076 2.18v4.954l-13.076-2.18v-4.954ZM20.524 1.635v11.523c0 .119-.05.231-.139.31l-2.758 2.451v6.859l4.966-.71V1.932l-2.069-.296ZM2.366 15.285l12.117 2.02v-2.367l-9.362-.954-2.755 1.301Zm17.33-13.768L15.31.891v15.98l4.387-3.898V1.517ZM1.408 4.737v10.086l3.228-1.524v-9.1l-3.228.538Zm4.055-.676v9.126l9.02.919V2.557l-9.02 1.504Zm10.759-1.33v1.158a.414.414 0 0 0 .827 0V2.731a.414.414 0 0 0-.827 0Zm-1.738-1.013L1.407 3.898V3.08L14.483.902v.816Z" clip-rule="evenodd"/></g><defs><clipPath id="a"><path fill="#fff" d="M0 0h24v24H0z"/></clipPath></defs></svg>