<svg xmlns="http://www.w3.org/2000/svg" width="20" height="20" fill="none"><path fill="#4888FF" fill-opacity=".5" d="M12.898 15.508c0-1.069-.674-1.69-1.964-2.786-.292-.25-.607-.515-.932-.81-.371.34-.723.64-1.047.916-1.288 1.089-1.852 1.621-1.852 2.68a2.897 2.897 0 1 0 5.795 0Z"/><path fill="#4888FF" fill-opacity=".5" d="M13.674 3.362c-1-.849-2.034-1.726-3.079-2.77L10 0l-.583.593C7.54 2.478 6.65 5.373 6.265 7.109a5.034 5.034 0 0 1-.649-1.487L5.26 4.258l-1.027.964c-1.8 1.69-3 3.365-3 6.049a8.685 8.685 0 0 0 6.5 8.483c.47.12.95.202 1.434.246a4.576 4.576 0 0 1-3.737-4.492c0-1.875 1.13-2.833 2.44-3.951.467-.398 1-.849 1.537-1.39l.593-.59.59.59c.48.48.96.887 1.425 1.282 1.313 1.114 2.553 2.167 2.553 4.06a4.574 4.574 0 0 1-3.713 4.486 8.759 8.759 0 0 0 7.912-8.723c0-3.585-2.36-5.589-5.093-7.91Z"/></svg>