<svg xmlns="http://www.w3.org/2000/svg" width="24" height="24" fill="none"><g fill="#343A3F" clip-path="url(#a)"><path d="M9.362 11.172H7.707a.414.414 0 0 0-.414.414V12h2.483v-.414a.414.414 0 0 0-.414-.414ZM13.914 7.448h-.828v2.897c0 1.304-.554 2.48-1.437 3.31h2.265V7.448ZM6.294 18.376l1.494-.997-1.803-1.202-.294.089.603 2.11ZM12.624 14.482H11.43v.93l.637.182.556-1.111Z"/><path d="M12.259 7.448H4.81v2.897a3.728 3.728 0 0 0 3.724 3.724 3.728 3.728 0 0 0 3.724-3.724V7.448ZM6.052 8.69a.414.414 0 1 1 .828 0 .414.414 0 0 1-.828 0Zm4.552 4.137H6.466v-1.241c0-.684.557-1.241 1.241-1.241h1.655c.685 0 1.242.557 1.242 1.241v1.241Zm0-3.724a.414.414 0 1 1 0-.828.414.414 0 0 1 0 .828ZM15.527.414h-.372c-.999 0-1.835.712-2.027 1.655h.372c1 0 1.835-.712 2.027-1.655ZM14.742 4.552h-.384L2.328 5.754v.867h12.414V4.55ZM11.018 3.31c0-.684.557-1.241 1.24-1.241.012 0 .023.003.034.003 0-.007.002-.013.003-.02A4.139 4.139 0 0 0 8.725 0a4.126 4.126 0 0 0-3.848 2.606 10.77 10.77 0 0 1-1.187 2.18l7.563-.754a1.231 1.231 0 0 1-.235-.722ZM12.673 3.31a.414.414 0 1 1-.828 0 .414.414 0 0 1 .828 0ZM9.28 17.379l1.495.997.605-2.118-.292-.084L9.28 17.38ZM13.914 14.482h-.365l-.671 1.343.642.184.101-.371 2.45.612-.147.588c.356.234.652.537.87.89l1.186-2.373-3.27-1.486a.826.826 0 0 1-.796.614ZM15.694 17.7a14.411 14.411 0 0 1-1.78 3.978V24h2.483v-4.748c0-.607-.262-1.165-.703-1.551ZM13.086 24v-1.17A14.49 14.49 0 0 1 12.06 24h1.027Z"/><path d="m15.067 16.853-.86-.216-.049.178a14.433 14.433 0 0 1-4.277 6.943L9.613 24h1.24a13.56 13.56 0 0 0 4.14-6.85l.074-.297ZM2.14 17.344a2.057 2.057 0 0 0-1.467 1.98V24h2.482v-3.15c0-1.243-.204-2.461-.606-3.63l-.409.124Z"/><path d="m13.295 16.805-1.119-.32-.917 3.208-2.31-1.54v5.331l.378-.34a13.599 13.599 0 0 0 3.968-6.339ZM4.9 16.506l-1.56.474c.426 1.246.643 2.544.643 3.869v3.15h4.138v-5.847l-2.311 1.54-.91-3.186ZM3.983 10.345V7.448h-.828v6.207H5.42a4.534 4.534 0 0 1-1.437-3.31ZM10.604 14.394a4.518 4.518 0 0 1-4.138 0v1.108l2.069 1.38 2.069-1.38v-1.108ZM21.364 8.621l-.882-1.783-1.507 2.61.455 1.696-1.295 2.241-2.54-1.172 1.488-2.577 1.696-.455 1.507-2.61L18.3 6.7l-.882-1.783-1.507 2.61.455 1.695-1.527 2.643-.098-.046v1.156l3.946 1.793.459-.916-.257-.119 1.257-2.176 1.695-.454 1.507-2.61-1.985.128Z"/></g><defs><clipPath id="a"><path fill="#fff" d="M0 0h24v24H0z"/></clipPath></defs></svg>