<svg xmlns="http://www.w3.org/2000/svg" width="24" height="24" fill="none"><g fill-opacity=".5" clip-path="url(#a)"><path fill="#4888FF" d="M17.5 15h-13c-3.5 0-4-4-4-4h17v4ZM23.5 12H20v2h3.5v-2Z"/><path fill="#fff" d="M18.5 14h-1v-2H20v2h-1.5ZM14 6.5v13c0 3.5-4 4-4 4v-17h4Z"/><path fill="#4888FF" d="M13 .5h-2V4h2V.5Z"/><path fill="#fff" d="M13 5.5v1h-2V4h2v1.5Z"/><path fill="#4888FF" d="M16 8V7a1 1 0 0 0-1-1h-1.5V4.5h1v-1h-1v-3A.5.5 0 0 0 13 0h-2a.5.5 0 0 0-.5.5v3h-1v1h1V6H9a1 1 0 0 0-1 1v1h1V7h.5v16.5a.5.5 0 0 0 .562.496c1.535-.192 4.438-1.378 4.438-4.496V7h.5v1h1Zm-4.5-7h1v2.5h-1V1Zm0 3.5h1V6h-1V4.5Zm2 15c0 2.3-1.993 3.119-3 3.387V7h3v12.5Z"/><path fill="#4888FF" d="M12.5 12.5h-1v8h1v-8ZM12.5 10.5h-1v1h1v-1ZM12.5 8.5h-1v1h1v-1ZM.125 10.669a.5.5 0 0 0-.121.393C.196 12.597 1.382 15.5 4.5 15.5h4v-1h-4c-2.3 0-3.12-1.993-3.387-3H8.5v-1h-8a.5.5 0 0 0-.375.169ZM17 9h-1v1h1v.5h-1.5v1H17v3h-1.5v1H17v.5h-1v1h1a1 1 0 0 0 1-1v-6a1 1 0 0 0-1-1Z"/><path fill="#4888FF" d="M8.5 12.5h-5v1h5v-1ZM23.5 11.5h-3v-1h-1v1h-1v1h1v1h-1v1h1v1h1v-1h3a.5.5 0 0 0 .5-.5v-2a.5.5 0 0 0-.5-.5Zm-.5 2h-2.5v-1H23v1Z"/></g><defs><clipPath id="a"><path fill="#fff" d="M0 0h24v24H0z"/></clipPath></defs></svg>