<svg xmlns="http://www.w3.org/2000/svg" width="41" height="41" fill="none"><path fill="#fff" d="M20.5 39.292a18.668 18.668 0 0 0 13.287-5.505 1.708 1.708 0 0 0 0-2.415L22.916 20.5 33.787 9.628a1.708 1.708 0 0 0 0-2.415A18.791 18.791 0 1 0 20.5 39.292Zm0-34.167a15.26 15.26 0 0 1 9.597 3.36L19.292 19.292a1.708 1.708 0 0 0 0 2.416l10.805 10.807A15.374 15.374 0 1 1 20.5 5.125ZM39.292 20.5a3.417 3.417 0 1 1-6.834 0 3.417 3.417 0 0 1 6.834 0Zm-25.625-8.542a3.417 3.417 0 1 1 6.834 0 3.417 3.417 0 0 1-6.834 0Z"/></svg>