<svg xmlns="http://www.w3.org/2000/svg" width="20" height="20" fill="none"><g fill="#4888FF" fill-opacity=".5" clip-path="url(#a)"><path d="M16.936 13.062A8.012 8.012 0 0 1 10 17.07a8.013 8.013 0 0 1-6.936-4.008A8.114 8.114 0 0 0 0 19.414c0 .323.263.586.586.586h18.828a.586.586 0 0 0 .586-.586 8.113 8.113 0 0 0-3.064-6.352ZM4.502 1.29H2.188a.586.586 0 0 0-.586.585c0 1.132.435 2.164 1.148 2.936A7.362 7.362 0 0 1 4.502 1.29ZM18.398 1.875a.586.586 0 0 0-.585-.586h-2.315a7.362 7.362 0 0 1 1.752 3.522 4.318 4.318 0 0 0 1.148-2.936ZM3.79 7.305h1.09c.218-.723.89-1.25 1.683-1.25.792 0 1.464.527 1.682 1.25h3.51c.218-.723.89-1.25 1.682-1.25.793 0 1.465.527 1.683 1.25h1.09V6.21A6.218 6.218 0 0 0 10 0a6.218 6.218 0 0 0-6.21 6.21v1.095Zm7.46-4.14h1.25a.586.586 0 0 1 0 1.17h-1.25a.586.586 0 0 1 0-1.17Zm-3.75 0h1.25a.586.586 0 0 1 0 1.17H7.5a.586.586 0 0 1 0-1.17Z"/><path d="M6.563 7.227a.586.586 0 0 0-.586.585v.665H3.75a.586.586 0 0 0-.586.585A6.844 6.844 0 0 0 10 15.899a6.844 6.844 0 0 0 6.836-6.835.586.586 0 0 0-.586-.586h-2.227v-.665a.586.586 0 1 0-1.171 0v.665H7.148v-.665a.586.586 0 0 0-.585-.585Z"/></g><defs><clipPath id="a"><path fill="#fff" d="M0 0h20v20H0z"/></clipPath></defs></svg>