<svg xmlns="http://www.w3.org/2000/svg" width="21" height="20" fill="none"><g fill="#4888FF" fill-opacity=".5" clip-path="url(#a)"><path d="M11.737 17.14a.35.35 0 0 0 .333-.275c.011-.058.027-.114.042-.17.009-.035.016-.07.026-.103.007-.024.016-.048.024-.071A3.208 3.208 0 0 1 13.203 15H11.09a6.822 6.822 0 0 0-.119.781 6.61 6.61 0 0 0-.035.647 3.567 3.567 0 0 0 .068.687l.005.028h.714l.015-.002ZM12.046 2.036c.011-.079.022-.154.04-.229.007-.043.021-.085.032-.128.018-.068.036-.136.06-.204.014-.042.03-.084.047-.125.025-.064.05-.129.079-.19l.057-.12c.032-.061.068-.122.1-.18l.068-.11c.039-.06.085-.121.128-.179a1.52 1.52 0 0 1 .068-.092c.058-.073.12-.142.186-.208l.036-.039c.077-.078.16-.152.246-.221l.01-.011H3.08a2.5 2.5 0 1 0 0 5h10.125a3.214 3.214 0 0 1-1.175-2.854 1.15 1.15 0 0 1 .018-.11ZM3.08 1.429c-.49 0-.917.33-1.04.803a.354.354 0 0 1-.625.13.357.357 0 0 1-.064-.308A1.786 1.786 0 0 1 3.08.714a.357.357 0 1 1 0 .715Zm2.5 0H4.507a.357.357 0 0 1 0-.715H5.58a.357.357 0 1 1 0 .715ZM17.517 18.376c.26-.543.403-1.393-.385-2.37A2.51 2.51 0 0 0 15.222 15c-.082 0-.16.014-.24.021-.067.007-.136.007-.203.02-.05.008-.096.026-.145.038a2.506 2.506 0 0 0-1.718 1.465c-.006.015-.016.028-.022.043-.026.069-.042.143-.063.215-.02.071-.047.138-.061.212-.1.476-.511.823-.998.84-.016 0-.03.004-.047.004h-.487c.305.65.801 1.19 1.421 1.55l.008.005c.154.09.313.17.477.24.022.01.044.017.066.026a4.2 4.2 0 0 0 .4.138c.047.013.093.028.14.04.153.04.308.071.464.094l.13.016c.173.02.347.032.52.033a3.052 3.052 0 0 0 2.653-1.624Z"/><path d="M4.507 20h7.74a4.024 4.024 0 0 1-1.954-2.81 4.228 4.228 0 0 1-.072-.76 7.783 7.783 0 0 1 .043-.773c.015-.121.029-.246.05-.368.011-.078.022-.16.036-.243.032-.16.068-.325.11-.492.061-.236.13-.472.215-.708a9.08 9.08 0 0 0-.471.49c-.004.003-.004.007-.008.007a14.92 14.92 0 0 0-.146.171 1.907 1.907 0 0 0-.093.118l-.018.018c-.021.032-.042.057-.057.079-.007.007-.01.014-.014.017a.536.536 0 0 0-.032.05l-.011.011c-.004.007-.007.01-.007.014s-.007.008-.007.008a.063.063 0 0 1-.015.018.413.413 0 0 1-.06.068c-.004.003-.011.006-.014.01a.29.29 0 0 1-.082.047c-.004 0-.004.003-.008.003-.003 0-.007.004-.01.004a.06.06 0 0 0-.018.007.307.307 0 0 1-.083.01c-.003 0-.01.004-.014.004h-.003c-.008 0-.008-.004-.015-.004a.248.248 0 0 1-.1-.017c-.003 0-.003-.004-.007-.004H9.38a.274.274 0 0 1-.107-.068.092.092 0 0 1-.025-.028.284.284 0 0 1-.072-.118l-.01-.032c-.008-.008-.008-.018-.011-.029-.004-.01.003-.014 0-.018.003-.035.004-.071.003-.107.164-1.58.698-3.097 1.557-4.432A11.585 11.585 0 0 1 16.9 5.26a5.42 5.42 0 0 0 .821-2.761 2.5 2.5 0 1 0-2.5 2.5.357.357 0 1 1 0 .714H4.261a15.648 15.648 0 0 1-1.282 2.45c-.211.354-.429.715-.64 1.093A12.473 12.473 0 0 0 .6 14.961c-.014.243-.021.496-.021.753C.579 17.918 2.489 20 4.507 20ZM3.09 9.557a.354.354 0 0 1 .15-.21l.693-.465a1.036 1.036 0 0 1 1.15 0l.318.21c.107.076.25.076.357 0l.318-.21a1.036 1.036 0 0 1 1.15 0l.318.21c.107.076.25.076.357 0l.318-.21a1.035 1.035 0 0 1 1.15 0l.693.464a.35.35 0 0 1 .1.493.357.357 0 0 1-.297.161.335.335 0 0 1-.196-.06l-.697-.461a.311.311 0 0 0-.357 0l-.317.21a1.036 1.036 0 0 1-1.15 0l-.318-.21a.311.311 0 0 0-.358 0l-.317.21a1.035 1.035 0 0 1-1.15 0l-.318-.21a.311.311 0 0 0-.357 0l-.697.46a.354.354 0 0 1-.493-.1.363.363 0 0 1-.05-.282Zm-.921 2.29.693-.465a1.036 1.036 0 0 1 1.15 0l.318.21c.107.076.25.076.357 0l.318-.21a1.035 1.035 0 0 1 1.15 0l.317.21c.108.076.25.076.358 0l.317-.21a1.036 1.036 0 0 1 1.15 0l.693.465a.357.357 0 0 1-.196.653.336.336 0 0 1-.196-.06l-.697-.461a.311.311 0 0 0-.357 0l-.318.21a1.036 1.036 0 0 1-1.15 0l-.318-.21a.311.311 0 0 0-.357 0l-.318.21a1.036 1.036 0 0 1-1.15 0l-.318-.21a.311.311 0 0 0-.357 0l-.696.46a.357.357 0 1 1-.393-.592Zm-.714 2.857.692-.465a1.036 1.036 0 0 1 1.15 0l.318.211c.108.075.25.075.357 0l.318-.21a1.036 1.036 0 0 1 1.15 0l.318.21c.107.075.25.075.357 0l.318-.21a1.036 1.036 0 0 1 1.15 0l.693.463a.357.357 0 0 1-.393.593l-.696-.46a.312.312 0 0 0-.357 0l-.318.21a1.036 1.036 0 0 1-1.15 0l-.318-.21a.311.311 0 0 0-.357 0l-.318.21a1.035 1.035 0 0 1-1.15 0l-.318-.21a.312.312 0 0 0-.357 0l-.697.46a.353.353 0 0 1-.492-.1.363.363 0 0 1-.061-.196c0-.12.06-.23.16-.296Z"/><path d="M10.114 12.736c1.29-1.979 4.09-5.157 9.654-7.332-6 .496-8.618 4.774-9.654 7.332Z"/><path d="M20.497 5.896c-6.204 2.293-8.983 5.84-10.068 7.683a22.907 22.907 0 0 1 4.435-3.222 22.914 22.914 0 0 0 5.633-4.46Z"/></g><defs><clipPath id="a"><path fill="#fff" d="M.54 0h20v20h-20z"/></clipPath></defs></svg>