<svg xmlns="http://www.w3.org/2000/svg" width="21" height="20" fill="none"><g fill="#4888FF" fill-opacity=".5" clip-path="url(#a)"><path d="M16.328 4.482c1.472 1.857 1.28 4.487 1.28 6.226h2.147c0-1.814.035-2.274-.137-3.043-.382-1.713-1.552-2.953-3.29-3.183ZM2.725 10.708c0-1.843-.025-2.375.108-3.263.156-1.041.514-2.14 1.17-2.963C2.44 4.669 1.132 5.794.715 7.665c-.172.77-.137 1.228-.137 3.043h2.148ZM4.022 7.623c-.118.79-.095 1.245-.095 3.085h1.62v-.624a2.512 2.512 0 0 1 2.508-2.51h4.222a2.512 2.512 0 0 1 2.509 2.51v.624h1.619c0-1.831.023-2.294-.095-3.085-.211-1.414-.951-3.171-2.334-3.171-8.219 0-7.712-.014-7.93.033-.992.215-1.766 1.417-2.024 3.138ZM14.643 13.13h3.488c.332 0 .601.27.601.601v4.347c0 .332-.269.602-.601.602H2.119a.601.601 0 0 1-.602-.602v-4.346c0-.332.27-.602.602-.602h3.57c-.162-.47-.143-.794-.143-1.22H.577v7.423c0 .332.27.6.601.6h17.976c.332 0 .601-.268.601-.6V11.91h-4.97c0 .421.02.747-.143 1.22Z"/><path d="M2.72 14.333v3.144h14.809v-3.144h-3.746c-.32.25-.697.426-1.109.507 0 1.237-.763 1.862-1.633 1.862H9.217c-.82 0-1.634-.566-1.634-1.878a2.596 2.596 0 0 1-1.033-.491H2.72Z"/><path d="M12.277 8.777H8.055c-.72 0-1.306.586-1.306 1.307v2.193c0 .738.582 1.408 1.436 1.408.33 0 .601.268.601.602v.782c0 .238.193.43.431.43h1.824c.238 0 .43-.192.43-.43v-.782c0-.25.154-.465.371-.556.266-.11.923.092 1.453-.6.327-.428.288-.81.288-1.22v-1.827c0-.72-.586-1.307-1.306-1.307ZM9.152 11.1a.601.601 0 0 1-1.202 0v-.704a.601.601 0 0 1 1.202 0v.704Zm1.615 1.868a.602.602 0 0 1-1.202 0c0-.714-.035-.849.135-1.056a.602.602 0 0 1 1.067.38v.676Zm1.503-1.658a.6.6 0 0 1-1.164-.21v-.704a.601.601 0 0 1 1.202 0c0 .766.011.784-.038.914ZM19.425 1.97h-.364v-.364a.601.601 0 0 0-1.203 0v.365h-.364a.601.601 0 1 0 0 1.202h.364v.364a.601.601 0 0 0 1.203 0v-.364h.364a.601.601 0 1 0 0-1.202ZM13.862 2.207h.364v.365a.601.601 0 0 0 1.203 0v-.365h.364a.601.601 0 0 0 0-1.202h-.364V.64a.601.601 0 1 0-1.203 0v.365h-.364a.601.601 0 0 0 0 1.202ZM4.26 2.207h.364v.365a.601.601 0 1 0 1.203 0v-.365h.364a.601.601 0 0 0 0-1.202h-.364V.64a.601.601 0 0 0-1.203 0v.365H4.26a.601.601 0 0 0 0 1.202ZM.992 3.173v.364a.601.601 0 0 0 1.203 0v-.364h.364a.601.601 0 1 0 0-1.202h-.364v-.365a.601.601 0 0 0-1.203 0v.365H.628a.601.601 0 0 0 0 1.202h.364Z"/></g><defs><clipPath id="a"><path fill="#fff" d="M.026 0h20v20h-20z"/></clipPath></defs></svg>