<svg xmlns="http://www.w3.org/2000/svg" width="24" height="24" fill="none"><g clip-path="url(#a)"><path fill="#4888FF" fill-opacity=".5" fill-rule="evenodd" d="M20.25 4.5a.75.75 0 1 1-.001-1.499.75.75 0 0 1 .001 1.499ZM12 21a9 9 0 1 1 0-18 9 9 0 0 1 0 18Zm8.25 0a.75.75 0 1 1-.001-1.499A.75.75 0 0 1 20.25 21Zm-16.5 0a.75.75 0 1 1-.001-1.499A.75.75 0 0 1 3.75 21Zm0-18a.75.75 0 1 1 .001 1.499A.75.75 0 0 1 3.75 3ZM21 0H3a3 3 0 0 0-3 3v18a3 3 0 0 0 3 3h18a3 3 0 0 0 3-3V3a3 3 0 0 0-3-3Zm-9 16.5a4.5 4.5 0 1 1 .001-9.001A4.5 4.5 0 0 1 12 16.5Zm0-12a7.5 7.5 0 1 0 .002 15.002A7.5 7.5 0 0 0 12 4.5ZM12 9a3 3 0 1 0 0 6 3 3 0 0 0 0-6Z" clip-rule="evenodd"/></g><defs><clipPath id="a"><path fill="#fff" d="M0 0h24v24H0z"/></clipPath></defs></svg>