<svg xmlns="http://www.w3.org/2000/svg" width="21" height="20" fill="none"><path fill="#4888FF" fill-opacity=".5" d="M17.457 6.63a.586.586 0 0 0-.538-.354h-4.073L15.56.848A.586.586 0 0 0 15.036 0H6.877a.586.586 0 0 0-.544.369L2.567 9.782a.586.586 0 0 0 .544.804h4.784l-3.445 8.61a.586.586 0 0 0 .97.622L17.343 7.265a.586.586 0 0 0 .113-.634Z"/><path fill="#4888FF" fill-opacity=".5" d="M17.457 6.63a.586.586 0 0 0-.538-.354h-4.073L15.56.848A.586.586 0 0 0 15.036 0h-5.02v14.98l7.328-7.715a.586.586 0 0 0 .113-.634Z"/></svg>