<svg xmlns="http://www.w3.org/2000/svg" width="24" height="24" fill="none"><path fill="#343A3F" fill-rule="evenodd" d="M20.13 3.27A11.077 11.077 0 0 0 12.243 0C6.098 0 1.096 5.001 1.093 11.149c0 1.965.513 3.883 1.489 5.574L1 22.5l5.91-1.55a11.137 11.137 0 0 0 5.328 1.357h.005c6.145 0 11.147-5.002 11.15-11.15A11.08 11.08 0 0 0 20.13 3.27Zm-7.887 17.154h-.004a9.256 9.256 0 0 1-4.716-1.292l-.339-.201-3.507.92.936-3.42-.22-.35a9.244 9.244 0 0 1-1.417-4.932c.002-5.11 4.16-9.266 9.27-9.266 2.476 0 4.803.966 6.552 2.718a9.212 9.212 0 0 1 2.712 6.556c-.002 5.11-4.16 9.267-9.267 9.267Zm5.083-6.94c-.278-.14-1.648-.814-1.904-.907-.255-.093-.44-.14-.626.14-.186.278-.72.906-.882 1.091-.163.187-.325.21-.604.07-.279-.14-1.176-.433-2.24-1.383-.829-.738-1.388-1.65-1.55-1.93-.162-.278-.002-.415.122-.568.302-.374.604-.767.697-.953.092-.186.046-.348-.024-.488s-.626-1.51-.859-2.068c-.226-.543-.455-.47-.627-.479-.162-.008-.348-.01-.533-.01-.186 0-.488.07-.743.35-.256.278-.975.952-.975 2.323 0 1.372.998 2.696 1.137 2.882.14.186 1.965 3 4.76 4.207.664.287 1.183.458 1.587.587.668.212 1.275.182 1.755.11.535-.08 1.648-.674 1.88-1.325.233-.65.233-1.208.163-1.324-.07-.117-.255-.186-.534-.326Z" clip-rule="evenodd"/></svg>