<svg xmlns="http://www.w3.org/2000/svg" width="22" height="22" fill="none"><path fill="#343A3F" fill-opacity=".5" d="M11 .5C5.21.5.5 5.18.5 11c0 5.803 4.696 10.5 10.5 10.5 5.813 0 10.5-4.706 10.5-10.5C21.5 5.185 16.792.5 11 .5ZM9.79 2.968C8.627 3.722 7.815 4.3 7.635 4.942 7.32 6.064 9.317 6.88 9.87 7.372c1.004.89.543 3.098-.508 4.082-1.05.984-1.44 1.982-1.324 2.732.15.98 1.26 2.538 1.856 3.504.595.967-.04 1.185-.87.692-.616-.367-3.457-1.06-4.32-1.687-.863-.627-1.134-2.776-.86-3.67.272-.893.593-3.273-.769-4.06a2.536 2.536 0 0 1-.808-.715c1.21-3.832 4.866-6.565 9.103-6.396-.597.438-1.184.855-1.582 1.114Zm8.974 9.737c-1.169-.122-2.526-.308-2.782-.448-1.07-.588-.718-1.391-.275-2.558.444-1.167-1.783-2.188-1.783-3.59 0-1.37.877-2.28 1.916-2.876A9.156 9.156 0 0 1 20.154 11a9.1 9.1 0 0 1-.772 3.677c-.047-.988.05-1.902-.619-1.972Z"/></svg>