<svg xmlns="http://www.w3.org/2000/svg">
  <symbol id='arrow-right' xmlns="http://www.w3.org/2000/svg" fill="none">
    <path stroke="currentColor" stroke-linecap="round" stroke-linejoin="round" d="m9 18 6-6-6-6"/>
  </symbol>

  <symbol id='chest' xmlns="http://www.w3.org/2000/svg" fill="none">
    <g fill="currentColor" clip-path="url(#a)">
    <path d="M.703 10.194H0v6.17a5.408 5.408 0 0 1 2.531.811v-6.981H.703ZM19.562 2.547H4.438A4.443 4.443 0 0 0 0 6.985v1.803H9.152V7.483h5.696v1.305H24V6.985a4.443 4.443 0 0 0-4.438-4.438ZM14.848 10.194v.78c0 .255-.035.502-.098.737h5.313v-1.517h-5.215ZM23.297 10.194h-1.828v6.981A5.407 5.407 0 0 1 24 16.363v-6.17h-.703ZM13.87 13.118a2.835 2.835 0 0 1-3.74 0H3.937v5.318a5.417 5.417 0 0 1 1.153 3.017h13.82a5.416 5.416 0 0 1 1.152-3.017v-5.318H13.87ZM20.32 21.453H24v-3.679a4.044 4.044 0 0 0-3.68 3.68ZM0 17.774v3.68h3.68A4.044 4.044 0 0 0 0 17.773ZM9.152 10.973v-.78H3.938v1.518H9.25a2.842 2.842 0 0 1-.098-.738ZM10.559 8.89v2.083c0 .795.646 1.442 1.44 1.442.796 0 1.442-.647 1.442-1.442V8.89H10.56Z"/>
    </g>
    <defs>
    <clipPath id="a">
    <path fill="#fff" d="M0 0h24v24H0z"/>
    </clipPath>
    </defs>
  </symbol>

  <symbol id='computer-case-blue' xmlns="http://www.w3.org/2000/svg" fill="none">
    <g clip-path="url(#a)">
    <path fill="#4888FF" fill-opacity=".5" fill-rule="evenodd" d="M14.829.005h-.001L.925 2.324a.414.414 0 0 0-.346.408v18.538c0 .202.147.375.346.408l13.904 2.317a.408.408 0 0 0 .126.002l8.11-1.159a.414.414 0 0 0 .356-.41V1.572a.414.414 0 0 0-.356-.41L14.955.005a.417.417 0 0 0-.127.001Zm.481 17.974v5.13l1.49-.213v-6.241l-1.49 1.324ZM1.407 15.964l13.076 2.18v4.954l-13.076-2.18v-4.954ZM20.524 1.635v11.523c0 .119-.05.231-.139.31l-2.758 2.451v6.859l4.966-.71V1.932l-2.069-.296ZM2.366 15.285l12.117 2.02v-2.367l-9.362-.954-2.755 1.301Zm17.33-13.768L15.31.891v15.98l4.387-3.898V1.517ZM1.408 4.737v10.086l3.228-1.524v-9.1l-3.228.538Zm4.055-.676v9.126l9.02.919V2.557l-9.02 1.504Zm10.759-1.33v1.158a.414.414 0 0 0 .827 0V2.731a.414.414 0 0 0-.827 0Zm-1.738-1.013L1.407 3.898V3.08L14.483.902v.816Z" clip-rule="evenodd"/>
    </g>
    <defs>
    <clipPath id="a">
    <path fill="#fff" d="M0 0h24v24H0z"/>
    </clipPath>
    </defs>
  </symbol>

  <symbol id='flame-blue' xmlns="http://www.w3.org/2000/svg" fill="none">
    <path fill="#4888FF" fill-opacity=".5" d="M12.898 15.508c0-1.069-.674-1.69-1.964-2.786-.292-.25-.607-.515-.932-.81-.371.34-.723.64-1.047.916-1.288 1.089-1.852 1.621-1.852 2.68a2.897 2.897 0 1 0 5.795 0Z"/>
    <path fill="#4888FF" fill-opacity=".5" d="M13.674 3.362c-1-.849-2.034-1.726-3.079-2.77L10 0l-.583.593C7.54 2.478 6.65 5.373 6.265 7.109a5.034 5.034 0 0 1-.649-1.487L5.26 4.258l-1.027.964c-1.8 1.69-3 3.365-3 6.049a8.685 8.685 0 0 0 6.5 8.483c.47.12.95.202 1.434.246a4.576 4.576 0 0 1-3.737-4.492c0-1.875 1.13-2.833 2.44-3.951.467-.398 1-.849 1.537-1.39l.593-.59.59.59c.48.48.96.887 1.425 1.282 1.313 1.114 2.553 2.167 2.553 4.06a4.574 4.574 0 0 1-3.713 4.486 8.759 8.759 0 0 0 7.912-8.723c0-3.585-2.36-5.589-5.093-7.91Z"/>
  </symbol>

  <symbol id='heart' xmlns="http://www.w3.org/2000/svg" fill="none">
    <path fill="currentColor" d="M16.04.8A5.865 5.865 0 0 0 11 3.824 5.864 5.864 0 0 0 5.96.8 6.23 6.23 0 0 0 .004 7.26c0 4.166 4.386 8.717 8.064 11.802a4.558 4.558 0 0 0 5.864 0c3.678-3.085 8.064-7.636 8.064-11.802A6.23 6.23 0 0 0 16.04.8Z"/>
  </symbol>

  <symbol id='hunter' xmlns="http://www.w3.org/2000/svg" fill="none">
    <g fill="currentColor" clip-path="url(#a)">
    <path d="M9.362 11.172H7.707a.414.414 0 0 0-.414.414V12h2.483v-.414a.414.414 0 0 0-.414-.414ZM13.914 7.448h-.828v2.897c0 1.304-.554 2.48-1.437 3.31h2.265V7.448ZM6.294 18.376l1.494-.997-1.803-1.202-.294.089.603 2.11ZM12.624 14.482H11.43v.93l.637.182.556-1.111Z"/>
    <path d="M12.259 7.448H4.81v2.897a3.728 3.728 0 0 0 3.724 3.724 3.728 3.728 0 0 0 3.724-3.724V7.448ZM6.052 8.69a.414.414 0 1 1 .828 0 .414.414 0 0 1-.828 0Zm4.552 4.137H6.466v-1.241c0-.684.557-1.241 1.241-1.241h1.655c.685 0 1.242.557 1.242 1.241v1.241Zm0-3.724a.414.414 0 1 1 0-.828.414.414 0 0 1 0 .828ZM15.527.414h-.372c-.999 0-1.835.712-2.027 1.655h.372c1 0 1.835-.712 2.027-1.655ZM14.742 4.552h-.384L2.328 5.754v.867h12.414V4.55ZM11.018 3.31c0-.684.557-1.241 1.24-1.241.012 0 .023.003.034.003 0-.007.002-.013.003-.02A4.139 4.139 0 0 0 8.725 0a4.126 4.126 0 0 0-3.848 2.606 10.77 10.77 0 0 1-1.187 2.18l7.563-.754a1.231 1.231 0 0 1-.235-.722ZM12.673 3.31a.414.414 0 1 1-.828 0 .414.414 0 0 1 .828 0ZM9.28 17.379l1.495.997.605-2.118-.292-.084L9.28 17.38ZM13.914 14.482h-.365l-.671 1.343.642.184.101-.371 2.45.612-.147.588c.356.234.652.537.87.89l1.186-2.373-3.27-1.486a.826.826 0 0 1-.796.614ZM15.694 17.7a14.411 14.411 0 0 1-1.78 3.978V24h2.483v-4.748c0-.607-.262-1.165-.703-1.551ZM13.086 24v-1.17A14.49 14.49 0 0 1 12.06 24h1.027Z"/>
    <path d="m15.067 16.853-.86-.216-.049.178a14.433 14.433 0 0 1-4.277 6.943L9.613 24h1.24a13.56 13.56 0 0 0 4.14-6.85l.074-.297ZM2.14 17.344a2.057 2.057 0 0 0-1.467 1.98V24h2.482v-3.15c0-1.243-.204-2.461-.606-3.63l-.409.124Z"/>
    <path d="m13.295 16.805-1.119-.32-.917 3.208-2.31-1.54v5.331l.378-.34a13.599 13.599 0 0 0 3.968-6.339ZM4.9 16.506l-1.56.474c.426 1.246.643 2.544.643 3.869v3.15h4.138v-5.847l-2.311 1.54-.91-3.186ZM3.983 10.345V7.448h-.828v6.207H5.42a4.534 4.534 0 0 1-1.437-3.31ZM10.604 14.394a4.518 4.518 0 0 1-4.138 0v1.108l2.069 1.38 2.069-1.38v-1.108ZM21.364 8.621l-.882-1.783-1.507 2.61.455 1.696-1.295 2.241-2.54-1.172 1.488-2.577 1.696-.455 1.507-2.61L18.3 6.7l-.882-1.783-1.507 2.61.455 1.695-1.527 2.643-.098-.046v1.156l3.946 1.793.459-.916-.257-.119 1.257-2.176 1.695-.454 1.507-2.61-1.985.128Z"/>
    </g>
    <defs>
    <clipPath id="a">
    <path fill="#fff" d="M0 0h24v24H0z"/>
    </clipPath>
    </defs>
  </symbol>

  <symbol id='knife-blue' xmlns="http://www.w3.org/2000/svg" fill="none">
    <g fill-opacity=".5" clip-path="url(#a)">
    <path fill="#4888FF" d="M17.5 15h-13c-3.5 0-4-4-4-4h17v4ZM23.5 12H20v2h3.5v-2Z"/>
    <path fill="#fff" d="M18.5 14h-1v-2H20v2h-1.5ZM14 6.5v13c0 3.5-4 4-4 4v-17h4Z"/>
    <path fill="#4888FF" d="M13 .5h-2V4h2V.5Z"/>
    <path fill="#fff" d="M13 5.5v1h-2V4h2v1.5Z"/>
    <path fill="#4888FF" d="M16 8V7a1 1 0 0 0-1-1h-1.5V4.5h1v-1h-1v-3A.5.5 0 0 0 13 0h-2a.5.5 0 0 0-.5.5v3h-1v1h1V6H9a1 1 0 0 0-1 1v1h1V7h.5v16.5a.5.5 0 0 0 .562.496c1.535-.192 4.438-1.378 4.438-4.496V7h.5v1h1Zm-4.5-7h1v2.5h-1V1Zm0 3.5h1V6h-1V4.5Zm2 15c0 2.3-1.993 3.119-3 3.387V7h3v12.5Z"/>
    <path fill="#4888FF" d="M12.5 12.5h-1v8h1v-8ZM12.5 10.5h-1v1h1v-1ZM12.5 8.5h-1v1h1v-1ZM.125 10.669a.5.5 0 0 0-.121.393C.196 12.597 1.382 15.5 4.5 15.5h4v-1h-4c-2.3 0-3.12-1.993-3.387-3H8.5v-1h-8a.5.5 0 0 0-.375.169ZM17 9h-1v1h1v.5h-1.5v1H17v3h-1.5v1H17v.5h-1v1h1a1 1 0 0 0 1-1v-6a1 1 0 0 0-1-1Z"/>
    <path fill="#4888FF" d="M8.5 12.5h-5v1h5v-1ZM23.5 11.5h-3v-1h-1v1h-1v1h1v1h-1v1h1v1h1v-1h3a.5.5 0 0 0 .5-.5v-2a.5.5 0 0 0-.5-.5Zm-.5 2h-2.5v-1H23v1Z"/>
    </g>
    <defs>
    <clipPath id="a">
    <path fill="#fff" d="M0 0h24v24H0z"/>
    </clipPath>
    </defs>
  </symbol>

  <symbol id='laptop-blue' xmlns="http://www.w3.org/2000/svg" fill="none">
    <path fill="#4888FF" fill-opacity=".5" d="M21.317 16.661h-.008V4.372H2.672v12.29h.01L0 18.766v.86h24v-.86l-2.683-2.106ZM4.374 5.61l15.47.023-.123 9.805-15.38.062.033-9.89Zm6.239 13.163.376-.542h2.439l.45.542h-3.265ZM2.574 17.74l.885-.616h17.227l1.229.685-19.34-.07Z"/>
  </symbol>

  <symbol id='location' xmlns="http://www.w3.org/2000/svg" fill="none">
    <path fill="currentColor" d="M6.053 14c.959-1.074 5.297-6.083 5.297-8.703a5.297 5.297 0 1 0-10.593 0c0 2.62 4.338 7.629 5.296 8.703Zm0-10.973a2.27 2.27 0 1 1 0 4.54 2.27 2.27 0 0 1 0-4.54Z"/>
  </symbol>

  <symbol id='main-logo' xmlns="http://www.w3.org/2000/svg" fill="none">
    <path fill="#fff" d="M20.5 39.292a18.668 18.668 0 0 0 13.287-5.505 1.708 1.708 0 0 0 0-2.415L22.916 20.5 33.787 9.628a1.708 1.708 0 0 0 0-2.415A18.791 18.791 0 1 0 20.5 39.292Zm0-34.167a15.26 15.26 0 0 1 9.597 3.36L19.292 19.292a1.708 1.708 0 0 0 0 2.416l10.805 10.807A15.374 15.374 0 1 1 20.5 5.125ZM39.292 20.5a3.417 3.417 0 1 1-6.834 0 3.417 3.417 0 0 1 6.834 0Zm-25.625-8.542a3.417 3.417 0 1 1 6.834 0 3.417 3.417 0 0 1-6.834 0Z"/>
  </symbol>

  <symbol id='new-blue' xmlns="http://www.w3.org/2000/svg" fill="none">
    <g clip-path="url(#a)">
    <path fill="#4888FF" fill-opacity=".5" d="m23.846 13.069-1.764-2.799a1.003 1.003 0 0 1-.131-.746l.7-3.233a1.002 1.002 0 0 0-.673-1.165l-3.15-1.01a1.002 1.002 0 0 1-.58-.487L16.705.702a1.001 1.001 0 0 0-1.265-.46l-3.063 1.25a1.003 1.003 0 0 1-.757 0L8.56.243a1.002 1.002 0 0 0-1.265.46L5.752 3.63c-.122.232-.33.406-.58.486l-3.15 1.01a1.001 1.001 0 0 0-.673 1.166l.7 3.233c.056.256.008.524-.131.746L.154 13.07a1.002 1.002 0 0 0 .234 1.325l2.614 2.027c.208.16.344.396.38.656l.447 3.277c.07.511.516.886 1.031.866l3.306-.128c.262-.01.517.082.712.259l2.449 2.222c.382.346.965.346 1.346 0l2.45-2.223a1 1 0 0 1 .712-.258l3.305.128c.515.02.961-.355 1.031-.866l.448-3.277c.036-.26.172-.495.379-.656l2.614-2.027c.407-.316.509-.89.234-1.325ZM9.225 15.997l-2.92-2.039 1.2 2.78-.8.346-1.839-4.264.837-.361 2.974 2.094-1.229-2.848.8-.345 1.84 4.264-.863.373Zm1.774-.766-1.84-4.264 3.161-1.364.311.721-2.3.993.407.945 2.141-.924.31.719-2.14.923.5 1.16 2.382-1.027.31.718-3.242 1.4Zm7.207-3.11L15.98 9.299l.529 3.553-.934.403-2.857-3.824.88-.38 1.908 2.65-.485-3.264 1.024-.442 2.033 2.656-.631-3.261.866-.374.805 4.71-.913.395Z"/>
    </g>
    <defs>
    <clipPath id="a">
    <path fill="#fff" d="M0 0h24v24H0z"/>
    </clipPath>
    </defs>
  </symbol>

  <symbol id='ork-blue' xmlns="http://www.w3.org/2000/svg" fill="none">
    <g fill="#4888FF" fill-opacity=".5" clip-path="url(#a)">
    <path d="M16.936 13.062A8.012 8.012 0 0 1 10 17.07a8.013 8.013 0 0 1-6.936-4.008A8.114 8.114 0 0 0 0 19.414c0 .323.263.586.586.586h18.828a.586.586 0 0 0 .586-.586 8.113 8.113 0 0 0-3.064-6.352ZM4.502 1.29H2.188a.586.586 0 0 0-.586.585c0 1.132.435 2.164 1.148 2.936A7.362 7.362 0 0 1 4.502 1.29ZM18.398 1.875a.586.586 0 0 0-.585-.586h-2.315a7.362 7.362 0 0 1 1.752 3.522 4.318 4.318 0 0 0 1.148-2.936ZM3.79 7.305h1.09c.218-.723.89-1.25 1.683-1.25.792 0 1.464.527 1.682 1.25h3.51c.218-.723.89-1.25 1.682-1.25.793 0 1.465.527 1.683 1.25h1.09V6.21A6.218 6.218 0 0 0 10 0a6.218 6.218 0 0 0-6.21 6.21v1.095Zm7.46-4.14h1.25a.586.586 0 0 1 0 1.17h-1.25a.586.586 0 0 1 0-1.17Zm-3.75 0h1.25a.586.586 0 0 1 0 1.17H7.5a.586.586 0 0 1 0-1.17Z"/>
    <path d="M6.563 7.227a.586.586 0 0 0-.586.585v.665H3.75a.586.586 0 0 0-.586.585A6.844 6.844 0 0 0 10 15.899a6.844 6.844 0 0 0 6.836-6.835.586.586 0 0 0-.586-.586h-2.227v-.665a.586.586 0 1 0-1.171 0v.665H7.148v-.665a.586.586 0 0 0-.585-.585Z"/>
    </g>
    <defs>
    <clipPath id="a">
    <path fill="#fff" d="M0 0h20v20H0z"/>
    </clipPath>
    </defs>
  </symbol>

  <symbol id='paper-blue' xmlns="http://www.w3.org/2000/svg" fill="none">
    <g fill="#4888FF" fill-opacity=".5" clip-path="url(#a)">
    <path d="M11.737 17.14a.35.35 0 0 0 .333-.275c.011-.058.027-.114.042-.17.009-.035.016-.07.026-.103.007-.024.016-.048.024-.071A3.208 3.208 0 0 1 13.203 15H11.09a6.822 6.822 0 0 0-.119.781 6.61 6.61 0 0 0-.035.647 3.567 3.567 0 0 0 .068.687l.005.028h.714l.015-.002ZM12.046 2.036c.011-.079.022-.154.04-.229.007-.043.021-.085.032-.128.018-.068.036-.136.06-.204.014-.042.03-.084.047-.125.025-.064.05-.129.079-.19l.057-.12c.032-.061.068-.122.1-.18l.068-.11c.039-.06.085-.121.128-.179a1.52 1.52 0 0 1 .068-.092c.058-.073.12-.142.186-.208l.036-.039c.077-.078.16-.152.246-.221l.01-.011H3.08a2.5 2.5 0 1 0 0 5h10.125a3.214 3.214 0 0 1-1.175-2.854 1.15 1.15 0 0 1 .018-.11ZM3.08 1.429c-.49 0-.917.33-1.04.803a.354.354 0 0 1-.625.13.357.357 0 0 1-.064-.308A1.786 1.786 0 0 1 3.08.714a.357.357 0 1 1 0 .715Zm2.5 0H4.507a.357.357 0 0 1 0-.715H5.58a.357.357 0 1 1 0 .715ZM17.517 18.376c.26-.543.403-1.393-.385-2.37A2.51 2.51 0 0 0 15.222 15c-.082 0-.16.014-.24.021-.067.007-.136.007-.203.02-.05.008-.096.026-.145.038a2.506 2.506 0 0 0-1.718 1.465c-.006.015-.016.028-.022.043-.026.069-.042.143-.063.215-.02.071-.047.138-.061.212-.1.476-.511.823-.998.84-.016 0-.03.004-.047.004h-.487c.305.65.801 1.19 1.421 1.55l.008.005c.154.09.313.17.477.24.022.01.044.017.066.026a4.2 4.2 0 0 0 .4.138c.047.013.093.028.14.04.153.04.308.071.464.094l.13.016c.173.02.347.032.52.033a3.052 3.052 0 0 0 2.653-1.624Z"/>
    <path d="M4.507 20h7.74a4.024 4.024 0 0 1-1.954-2.81 4.228 4.228 0 0 1-.072-.76 7.783 7.783 0 0 1 .043-.773c.015-.121.029-.246.05-.368.011-.078.022-.16.036-.243.032-.16.068-.325.11-.492.061-.236.13-.472.215-.708a9.08 9.08 0 0 0-.471.49c-.004.003-.004.007-.008.007a14.92 14.92 0 0 0-.146.171 1.907 1.907 0 0 0-.093.118l-.018.018c-.021.032-.042.057-.057.079-.007.007-.01.014-.014.017a.536.536 0 0 0-.032.05l-.011.011c-.004.007-.007.01-.007.014s-.007.008-.007.008a.063.063 0 0 1-.015.018.413.413 0 0 1-.06.068c-.004.003-.011.006-.014.01a.29.29 0 0 1-.082.047c-.004 0-.004.003-.008.003-.003 0-.007.004-.01.004a.06.06 0 0 0-.018.007.307.307 0 0 1-.083.01c-.003 0-.01.004-.014.004h-.003c-.008 0-.008-.004-.015-.004a.248.248 0 0 1-.1-.017c-.003 0-.003-.004-.007-.004H9.38a.274.274 0 0 1-.107-.068.092.092 0 0 1-.025-.028.284.284 0 0 1-.072-.118l-.01-.032c-.008-.008-.008-.018-.011-.029-.004-.01.003-.014 0-.018.003-.035.004-.071.003-.107.164-1.58.698-3.097 1.557-4.432A11.585 11.585 0 0 1 16.9 5.26a5.42 5.42 0 0 0 .821-2.761 2.5 2.5 0 1 0-2.5 2.5.357.357 0 1 1 0 .714H4.261a15.648 15.648 0 0 1-1.282 2.45c-.211.354-.429.715-.64 1.093A12.473 12.473 0 0 0 .6 14.961c-.014.243-.021.496-.021.753C.579 17.918 2.489 20 4.507 20ZM3.09 9.557a.354.354 0 0 1 .15-.21l.693-.465a1.036 1.036 0 0 1 1.15 0l.318.21c.107.076.25.076.357 0l.318-.21a1.036 1.036 0 0 1 1.15 0l.318.21c.107.076.25.076.357 0l.318-.21a1.035 1.035 0 0 1 1.15 0l.693.464a.35.35 0 0 1 .1.493.357.357 0 0 1-.297.161.335.335 0 0 1-.196-.06l-.697-.461a.311.311 0 0 0-.357 0l-.317.21a1.036 1.036 0 0 1-1.15 0l-.318-.21a.311.311 0 0 0-.358 0l-.317.21a1.035 1.035 0 0 1-1.15 0l-.318-.21a.311.311 0 0 0-.357 0l-.697.46a.354.354 0 0 1-.493-.1.363.363 0 0 1-.05-.282Zm-.921 2.29.693-.465a1.036 1.036 0 0 1 1.15 0l.318.21c.107.076.25.076.357 0l.318-.21a1.035 1.035 0 0 1 1.15 0l.317.21c.108.076.25.076.358 0l.317-.21a1.036 1.036 0 0 1 1.15 0l.693.465a.357.357 0 0 1-.196.653.336.336 0 0 1-.196-.06l-.697-.461a.311.311 0 0 0-.357 0l-.318.21a1.036 1.036 0 0 1-1.15 0l-.318-.21a.311.311 0 0 0-.357 0l-.318.21a1.036 1.036 0 0 1-1.15 0l-.318-.21a.311.311 0 0 0-.357 0l-.696.46a.357.357 0 1 1-.393-.592Zm-.714 2.857.692-.465a1.036 1.036 0 0 1 1.15 0l.318.211c.108.075.25.075.357 0l.318-.21a1.036 1.036 0 0 1 1.15 0l.318.21c.107.075.25.075.357 0l.318-.21a1.036 1.036 0 0 1 1.15 0l.693.463a.357.357 0 0 1-.393.593l-.696-.46a.312.312 0 0 0-.357 0l-.318.21a1.036 1.036 0 0 1-1.15 0l-.318-.21a.311.311 0 0 0-.357 0l-.318.21a1.035 1.035 0 0 1-1.15 0l-.318-.21a.312.312 0 0 0-.357 0l-.697.46a.353.353 0 0 1-.492-.1.363.363 0 0 1-.061-.196c0-.12.06-.23.16-.296Z"/>
    <path d="M10.114 12.736c1.29-1.979 4.09-5.157 9.654-7.332-6 .496-8.618 4.774-9.654 7.332Z"/>
    <path d="M20.497 5.896c-6.204 2.293-8.983 5.84-10.068 7.683a22.907 22.907 0 0 1 4.435-3.222 22.914 22.914 0 0 0 5.633-4.46Z"/>
    </g>
    <defs>
    <clipPath id="a">
    <path fill="#fff" d="M.54 0h20v20h-20z"/>
    </clipPath>
    </defs>
  </symbol>

  <symbol id='people-blue' xmlns="http://www.w3.org/2000/svg" fill="none">
    <path fill="#4888FF" fill-opacity=".5" d="M8.741 6.184c.749 1.75 3.023 2.617 4.74 1.77 2.294-.933 2.817-4.3.957-5.886-2.836-2.643-7.31.567-5.697 4.116Zm7.163 3.57c-.718-.456-1.593-.701-2.482-.71-.105-.004-3.108-.01-3.106.014-2.46.113-4.457 2.192-4.456 4.703.042.416-.068 1.68.065 2.069A2.546 2.546 0 0 0 8.4 17.79h7.2c1.413.005 2.554-1.174 2.54-2.541v-1.488a4.715 4.715 0 0 0-2.235-4.006Z"/>
    <path fill="#4888FF" fill-opacity=".5" d="M3.182 15.83h1.64c-.094-.38-.035-1.767-.051-2.178a5.83 5.83 0 0 1 4.144-5.457c-.215-.171-.404-.4-.58-.603a3.643 3.643 0 0 0-.486-.03h-2.65a4.455 4.455 0 0 0-4.449 4.45V13.4a2.431 2.431 0 0 0 2.432 2.43Zm3.345-8.812c.458 0 .885-.087 1.285-.254a4.538 4.538 0 0 1-.48-2.235A4.657 4.657 0 0 1 8.916 1.19C6.876-.918 3.053.643 3.116 3.615a3.415 3.415 0 0 0 3.411 3.404Zm12.274.545h-2.65c-.521-.111-.715.347-1.066.631.96.287 1.828.82 2.518 1.546a5.79 5.79 0 0 1 1.626 3.912c-.015.417.041 1.785-.05 2.178h1.64a2.432 2.432 0 0 0 2.431-2.431v-1.387a4.455 4.455 0 0 0-4.449-4.449Zm-2.424-4.492a4.616 4.616 0 0 1-.189 3.694c.407.17.844.256 1.285.254 4.507-.147 4.507-6.667 0-6.808a3.412 3.412 0 0 0-2.388.98 4.603 4.603 0 0 1 1.292 1.88Z"/>
  </symbol>

  <symbol id='phone-blue' xmlns="http://www.w3.org/2000/svg" fill="none">
    <path fill="#4888FF" fill-opacity=".5" d="M17.97 0H6.03c-.612 0-1.107.496-1.107 1.107v21.785c0 .612.496 1.108 1.108 1.108h11.938c.612 0 1.108-.496 1.108-1.108V1.107C19.077.495 18.58 0 17.969 0Zm-7.193 1.307h2.446a.23.23 0 1 1 0 .462h-2.446a.231.231 0 0 1 0-.462Zm2.7 20.723h-2.954a.439.439 0 1 1 0-.877h2.954a.438.438 0 0 1 0 .877Zm4.216-2.584H6.307V3.753h11.386v15.693Z"/>
  </symbol>

  <symbol id='phone' xmlns="http://www.w3.org/2000/svg" fill="none">
    <path fill="currentColor" fill-opacity=".5" d="M6.336.346H1.664A1.659 1.659 0 0 0 0 2.01v9.98c0 .923.756 1.664 1.664 1.664h4.672A1.659 1.659 0 0 0 8 11.99V2.01A1.659 1.659 0 0 0 6.336.346ZM4.008 12.58a.749.749 0 0 1-.756-.756c0-.424.332-.756.756-.756.423 0 .756.332.756.756a.749.749 0 0 1-.756.756Zm3.236-2.314H.756V2.57h6.488v7.697Z"/>
  </symbol>

  <symbol id='plus-blue' xmlns="http://www.w3.org/2000/svg" fill="none">
    <path stroke="#4888FF" stroke-linecap="round" stroke-linejoin="round" d="M8 3.333v9.334M3.333 8h9.334"/>
  </symbol>

  <symbol id='skull-blue' xmlns="http://www.w3.org/2000/svg" width="21" height="20" fill="none">
    <g fill="#4888FF" fill-opacity=".5" clip-path="url(#a)">
    <path d="M16.328 4.482c1.472 1.857 1.28 4.487 1.28 6.226h2.147c0-1.814.035-2.274-.137-3.043-.382-1.713-1.552-2.953-3.29-3.183ZM2.725 10.708c0-1.843-.025-2.375.108-3.263.156-1.041.514-2.14 1.17-2.963C2.44 4.669 1.132 5.794.715 7.665c-.172.77-.137 1.228-.137 3.043h2.148ZM4.022 7.623c-.118.79-.095 1.245-.095 3.085h1.62v-.624a2.512 2.512 0 0 1 2.508-2.51h4.222a2.512 2.512 0 0 1 2.509 2.51v.624h1.619c0-1.831.023-2.294-.095-3.085-.211-1.414-.951-3.171-2.334-3.171-8.219 0-7.712-.014-7.93.033-.992.215-1.766 1.417-2.024 3.138ZM14.643 13.13h3.488c.332 0 .601.27.601.601v4.347c0 .332-.269.602-.601.602H2.119a.601.601 0 0 1-.602-.602v-4.346c0-.332.27-.602.602-.602h3.57c-.162-.47-.143-.794-.143-1.22H.577v7.423c0 .332.27.6.601.6h17.976c.332 0 .601-.268.601-.6V11.91h-4.97c0 .421.02.747-.143 1.22Z"/>
    <path d="M2.72 14.333v3.144h14.809v-3.144h-3.746c-.32.25-.697.426-1.109.507 0 1.237-.763 1.862-1.633 1.862H9.217c-.82 0-1.634-.566-1.634-1.878a2.596 2.596 0 0 1-1.033-.491H2.72Z"/>
    <path d="M12.277 8.777H8.055c-.72 0-1.306.586-1.306 1.307v2.193c0 .738.582 1.408 1.436 1.408.33 0 .601.268.601.602v.782c0 .238.193.43.431.43h1.824c.238 0 .43-.192.43-.43v-.782c0-.25.154-.465.371-.556.266-.11.923.092 1.453-.6.327-.428.288-.81.288-1.22v-1.827c0-.72-.586-1.307-1.306-1.307ZM9.152 11.1a.601.601 0 0 1-1.202 0v-.704a.601.601 0 0 1 1.202 0v.704Zm1.615 1.868a.602.602 0 0 1-1.202 0c0-.714-.035-.849.135-1.056a.602.602 0 0 1 1.067.38v.676Zm1.503-1.658a.6.6 0 0 1-1.164-.21v-.704a.601.601 0 0 1 1.202 0c0 .766.011.784-.038.914ZM19.425 1.97h-.364v-.364a.601.601 0 0 0-1.203 0v.365h-.364a.601.601 0 1 0 0 1.202h.364v.364a.601.601 0 0 0 1.203 0v-.364h.364a.601.601 0 1 0 0-1.202ZM13.862 2.207h.364v.365a.601.601 0 0 0 1.203 0v-.365h.364a.601.601 0 0 0 0-1.202h-.364V.64a.601.601 0 1 0-1.203 0v.365h-.364a.601.601 0 0 0 0 1.202ZM4.26 2.207h.364v.365a.601.601 0 1 0 1.203 0v-.365h.364a.601.601 0 0 0 0-1.202h-.364V.64a.601.601 0 0 0-1.203 0v.365H4.26a.601.601 0 0 0 0 1.202ZM.992 3.173v.364a.601.601 0 0 0 1.203 0v-.364h.364a.601.601 0 1 0 0-1.202h-.364v-.365a.601.601 0 0 0-1.203 0v.365H.628a.601.601 0 0 0 0 1.202h.364Z"/>
    </g>
    <defs>
    <clipPath id="a">
    <path fill="#fff" d="M.026 0h20v20h-20z"/>
    </clipPath>
    </defs>
  </symbol>

  <symbol id='speaker-blue' xmlns="http://www.w3.org/2000/svg" fill="none">
    <g clip-path="url(#a)">
    <path fill="#4888FF" fill-opacity=".5" fill-rule="evenodd" d="M20.25 4.5a.75.75 0 1 1-.001-1.499.75.75 0 0 1 .001 1.499ZM12 21a9 9 0 1 1 0-18 9 9 0 0 1 0 18Zm8.25 0a.75.75 0 1 1-.001-1.499A.75.75 0 0 1 20.25 21Zm-16.5 0a.75.75 0 1 1-.001-1.499A.75.75 0 0 1 3.75 21Zm0-18a.75.75 0 1 1 .001 1.499A.75.75 0 0 1 3.75 3ZM21 0H3a3 3 0 0 0-3 3v18a3 3 0 0 0 3 3h18a3 3 0 0 0 3-3V3a3 3 0 0 0-3-3Zm-9 16.5a4.5 4.5 0 1 1 .001-9.001A4.5 4.5 0 0 1 12 16.5Zm0-12a7.5 7.5 0 1 0 .002 15.002A7.5 7.5 0 0 0 12 4.5ZM12 9a3 3 0 1 0 0 6 3 3 0 0 0 0-6Z" clip-rule="evenodd"/>
    </g>
    <defs>
    <clipPath id="a">
    <path fill="#fff" d="M0 0h24v24H0z"/>
    </clipPath>
    </defs>
  </symbol>

  <symbol id='telegram' xmlns="http://www.w3.org/2000/svg" fill="none">
    <path fill="currentColor" d="M23.53.966A1.45 1.45 0 0 0 22.098.66L.995 7.615c-.575.19-.965.703-.993 1.308a1.439 1.439 0 0 0 .866 1.395l5.219 2.283 1.574 7.303c.066.304.22.574.546.657.33.084.563-.096.81-.28l3.872-2.9 4.528 3.704a1.44 1.44 0 0 0 1.382.251c.477-.161.83-.55.945-1.04l4.218-17.93a1.45 1.45 0 0 0-.432-1.4ZM9.354 13.91a.177.177 0 0 0-.008.021l-.873 3.05-.974-4.518 6.7-3.722-4.685 4.897a.704.704 0 0 0-.16.272Zm.277 4.15.396-1.386.38-1.325 1.358 1.112-2.134 1.599ZM22.589 2.043l-4.217 17.93c-.002.01-.005.021-.025.028-.02.007-.03 0-.038-.006l-4.954-4.055-2.296-1.878 7.375-7.711a.705.705 0 0 0-.852-1.103l-10.92 6.067-5.229-2.288c-.016-.007-.025-.011-.023-.038 0-.027.01-.03.027-.035l21.102-6.957c.01-.003.022-.007.039.009.017.015.014.027.011.037Z"/>
  </symbol>

  <symbol id='thunder-blue' xmlns="http://www.w3.org/2000/svg" fill="none">
    <path fill="#4888FF" fill-opacity=".5" d="M17.457 6.63a.586.586 0 0 0-.538-.354h-4.073L15.56.848A.586.586 0 0 0 15.036 0H6.877a.586.586 0 0 0-.544.369L2.567 9.782a.586.586 0 0 0 .544.804h4.784l-3.445 8.61a.586.586 0 0 0 .97.622L17.343 7.265a.586.586 0 0 0 .113-.634Z"/>
    <path fill="#4888FF" fill-opacity=".5" d="M17.457 6.63a.586.586 0 0 0-.538-.354h-4.073L15.56.848A.586.586 0 0 0 15.036 0h-5.02v14.98l7.328-7.715a.586.586 0 0 0 .113-.634Z"/>
  </symbol>

  <symbol id='tv-blue' xmlns="http://www.w3.org/2000/svg" fill="none">
    <path fill="#4888FF" fill-opacity=".5" d="M18.048 20.987h-2.616v-1.261H8.569v1.261H5.952a.714.714 0 1 0 0 1.428h12.096a.714.714 0 1 0 0-1.428ZM0 15.654v1.93c0 .394.32.714.714.714h22.572c.394 0 .714-.32.714-.714v-1.93H0ZM23.286 1.585H.714A.714.714 0 0 0 0 2.299v11.926h24V2.3a.714.714 0 0 0-.714-.714Z"/>
  </symbol>

  <symbol id='whatsapp' xmlns="http://www.w3.org/2000/svg" fill="none">
    <path fill="currentColor" fill-rule="evenodd" d="M20.13 3.27A11.077 11.077 0 0 0 12.243 0C6.098 0 1.096 5.001 1.093 11.149c0 1.965.513 3.883 1.489 5.574L1 22.5l5.91-1.55a11.137 11.137 0 0 0 5.328 1.357h.005c6.145 0 11.147-5.002 11.15-11.15A11.08 11.08 0 0 0 20.13 3.27Zm-7.887 17.154h-.004a9.256 9.256 0 0 1-4.716-1.292l-.339-.201-3.507.92.936-3.42-.22-.35a9.244 9.244 0 0 1-1.417-4.932c.002-5.11 4.16-9.266 9.27-9.266 2.476 0 4.803.966 6.552 2.718a9.212 9.212 0 0 1 2.712 6.556c-.002 5.11-4.16 9.267-9.267 9.267Zm5.083-6.94c-.278-.14-1.648-.814-1.904-.907-.255-.093-.44-.14-.626.14-.186.278-.72.906-.882 1.091-.163.187-.325.21-.604.07-.279-.14-1.176-.433-2.24-1.383-.829-.738-1.388-1.65-1.55-1.93-.162-.278-.002-.415.122-.568.302-.374.604-.767.697-.953.092-.186.046-.348-.024-.488s-.626-1.51-.859-2.068c-.226-.543-.455-.47-.627-.479-.162-.008-.348-.01-.533-.01-.186 0-.488.07-.743.35-.256.278-.975.952-.975 2.323 0 1.372.998 2.696 1.137 2.882.14.186 1.965 3 4.76 4.207.664.287 1.183.458 1.587.587.668.212 1.275.182 1.755.11.535-.08 1.648-.674 1.88-1.325.233-.65.233-1.208.163-1.324-.07-.117-.255-.186-.534-.326Z" clip-rule="evenodd"/>
  </symbol>

  <symbol id='world' xmlns="http://www.w3.org/2000/svg" fill="none">
    <path fill="#343A3F" fill-opacity=".5" d="M11 .5C5.21.5.5 5.18.5 11c0 5.803 4.696 10.5 10.5 10.5 5.813 0 10.5-4.706 10.5-10.5C21.5 5.185 16.792.5 11 .5ZM9.79 2.968C8.627 3.722 7.815 4.3 7.635 4.942 7.32 6.064 9.317 6.88 9.87 7.372c1.004.89.543 3.098-.508 4.082-1.05.984-1.44 1.982-1.324 2.732.15.98 1.26 2.538 1.856 3.504.595.967-.04 1.185-.87.692-.616-.367-3.457-1.06-4.32-1.687-.863-.627-1.134-2.776-.86-3.67.272-.893.593-3.273-.769-4.06a2.536 2.536 0 0 1-.808-.715c1.21-3.832 4.866-6.565 9.103-6.396-.597.438-1.184.855-1.582 1.114Zm8.974 9.737c-1.169-.122-2.526-.308-2.782-.448-1.07-.588-.718-1.391-.275-2.558.444-1.167-1.783-2.188-1.783-3.59 0-1.37.877-2.28 1.916-2.876A9.156 9.156 0 0 1 20.154 11a9.1 9.1 0 0 1-.772 3.677c-.047-.988.05-1.902-.619-1.972Z"/>
  </symbol>

</svg>